Coordinates
version=1
nRows=18
nColumns=22
inDegrees=yes

Units are S.I. units (second, meters, Newtons, ...)
If the header above contains a line with 'inDegrees', this indicates whether rotational values are in degrees (yes) or radians (no).

endheader
time	pelvis_tilt	pelvis_list	pelvis_rotation	pelvis_tx	pelvis_ty	pelvis_tz	hip_flexion_r	hip_adduction_r	hip_rotation_r	knee_angle_r	ankle_angle_r	subtalar_angle_r	hip_flexion_l	hip_adduction_l	hip_rotation_l	knee_angle_l	ankle_angle_l	subtalar_angle_l	lumbar_extension	lumbar_bending	lumbar_rotation
      0.01000000	      4.34806530	     -2.15908827	      6.23658557	     -1.40308663	      0.94320155	      0.09431677	     -2.47416191	      5.51058569	     -6.42213370	    -17.57764597	     16.18056913	     -3.24725845	      0.86199588	     -6.40574689	     -3.71868050	    -25.14326445	     24.26822466	     -1.74801726	    -11.15424301	      4.70287151	     -9.97319188
      0.02000000	      4.33826622	     -2.29725964	      6.34305729	     -1.40207488	      0.94281604	      0.09537102	     -2.53502812	      5.77022659	     -6.39804073	    -17.53277383	     16.18423929	     -3.29291919	      1.66489973	     -6.57048741	     -3.00749998	    -26.67612837	     24.06208126	     -2.12189325	    -11.32843260	      4.87646931	     -9.99550605
      0.03000000	      4.29220450	     -2.44565134	      6.45844090	     -1.40090748	      0.94232347	      0.09658282	     -2.55776685	      6.04835293	     -6.38542089	    -17.50270996	     16.22940476	     -3.35541201	      2.70693537	     -6.71307504	     -2.13657537	    -28.58007316	     23.71667359	     -2.71709326	    -11.49962193	      5.05699536	     -9.98463698
      0.04000000	      4.22012193	     -2.59364668	      6.56038348	     -1.39961590	      0.94176365	      0.09790933	     -2.55057913	      6.32665122	     -6.37615386	    -17.49021443	     16.34835045	     -3.44474674	      3.94470735	     -6.81208627	     -1.17346428	    -30.79470241	     23.21443906	     -3.54517816	    -11.67606858	      5.23014378	     -9.91176780
      0.05000000	      4.17424403	     -2.76623583	      6.69800864	     -1.39818782	      0.94123408	      0.09921259	     -2.61141835	      6.64197606	     -6.39947018	    -17.40815809	     16.39063231	     -3.52905747	      5.29811683	     -6.88539693	     -0.08313194	    -33.24183479	     22.57939290	     -4.27294001	    -11.89565328	      5.44148937	     -9.83728983
      0.06000000	      4.11438378	     -2.92474467	      6.81829399	     -1.39665579	      0.94068901	      0.10051591	     -2.66404577	      6.93841189	     -6.39917440	    -17.33195695	     16.47462843	     -3.62636717	      6.76849606	     -6.89353968	      0.99190306	    -35.85411768	     21.78788019	     -5.05310192	    -12.11237348	      5.63395626	     -9.76016358
      0.07000000	      4.06789606	     -3.07723068	      6.93176999	     -1.39496066	      0.94021235	      0.10174542	     -2.77661824	      7.22388865	     -6.42395327	    -17.18705494	     16.50704505	     -3.71420054	      8.27093944	     -6.83699111	      2.06790570	    -38.51821014	     20.86562484	     -5.70297342	    -12.34125982	      5.81943472	     -9.63117072
      0.08000000	      3.99888718	     -3.19510427	      6.98337300	     -1.39314982	      0.93974012	      0.10297412	     -2.86612765	      7.45720179	     -6.40714257	    -17.06977662	     16.61427765	     -3.81063870	      9.81121797	     -6.70449770	      3.01774567	    -41.17898412	     19.85861595	     -6.33771953	    -12.55041641	      5.95457337	     -9.47194024
      0.09000000	      3.94114637	     -3.27453443	      7.00151133	     -1.39115952	      0.93937782	      0.10413819	     -3.02136772	      7.63976145	     -6.39895849	    -16.88214282	     16.63590184	     -3.88244335	     11.30475750	     -6.48478034	      3.90224674	    -43.73075208	     18.80789022	     -6.76088595	    -12.76663425	      6.03985762	     -9.27401458
      0.10000000	      3.86503856	     -3.30166671	      6.94376593	     -1.38900202	      0.93906478	      0.10530917	     -3.18018242	      7.74798171	     -6.36186713	    -16.69272074	     16.70315969	     -3.94130326	     12.76039181	     -6.18522895	      4.63300918	    -46.12510265	     17.79347597	     -7.02948163	    -12.95959223	      6.04880955	     -9.02092283
      0.11000000	      3.76428484	     -3.28857817	      6.81815554	     -1.38667289	      0.93878541	      0.10648908	     -3.33899201	      7.79236679	     -6.33727607	    -16.48910787	     16.79645298	     -3.99106079	     14.17535807	     -5.82545019	      5.21808722	    -48.31365344	     16.91332243	     -7.08685785	    -13.12128323	      5.99442599	     -8.70855541
      0.12000000	      3.65571536	     -3.22455507	      6.63398095	     -1.38416064	      0.93858276	      0.10766729	     -3.52199457	      7.76749667	     -6.29912107	    -16.26433123	     16.87649381	     -4.01995806	     15.51498458	     -5.40118661	      5.66258983	    -50.23965343	     16.19894059	     -6.90187322	    -13.27117292	      5.86940041	     -8.37136677
      0.13000000	      3.53862099	     -3.11982737	      6.40057819	     -1.38145058	      0.93844343	      0.10884265	     -3.72450220	      7.68612608	     -6.24651743	    -16.02335900	     16.95506743	     -4.02234593	     16.77951520	     -4.93473544	      5.96380602	    -51.87326101	     15.67860603	     -6.48040064	    -13.40466795	      5.68647311	     -8.00827789
      0.14000000	      3.44362487	     -2.97589494	      6.14440423	     -1.37851973	      0.93841359	      0.10999525	     -4.00141890	      7.56383732	     -6.14807813	    -15.72164145	     17.03626691	     -3.99370280	     17.93112719	     -4.43769701	      6.14129911	    -53.18254969	     15.35599526	     -5.82406208	    -13.55408170	      5.45721312	     -7.67124778
      0.15000000	      3.33609472	     -2.80395605	      5.84464186	     -1.37539464	      0.93841327	      0.11116094	     -4.26801735	      7.39813047	     -6.03643548	    -15.44771575	     17.09993234	     -3.93629615	     19.02032356	     -3.94206028	      6.15062765	    -54.17519223	     15.16111262	     -5.34286902	    -13.68266050	      5.18366305	     -7.29147615
      0.16000000	      3.22683964	     -2.62481070	      5.55387091	     -1.37206089	      0.93843272	      0.11229713	     -4.57071632	      7.22804854	     -5.89829857	    -15.12347096	     17.15391999	     -3.85370848	     20.04601147	     -3.47354283	      6.04492226	    -54.85010422	     15.10287033	     -4.85595941	    -13.79493361	      4.90132148	     -6.96072109
      0.17000000	      3.12310212	     -2.45171110	      5.27387399	     -1.36852970	      0.93845018	      0.11342131	     -4.89991818	      7.06597230	     -5.76460972	    -14.77947797	     17.19618031	     -3.75860420	     21.01107228	     -3.06326395	      5.81375387	    -55.22433918	     15.11600519	     -4.54746585	    -13.90094828	      4.62413603	     -6.66054807
      0.18000000	      3.01944151	     -2.28159539	      5.02876183	     -1.36480153	      0.93843947	      0.11451416	     -5.25794810	      6.91545418	     -5.63204288	    -14.39928799	     17.22486873	     -3.68788886	     21.92334568	     -2.69952812	      5.49598817	    -55.30665100	     15.17342215	     -4.45946536	    -13.99245961	      4.34784161	     -6.43389797
